# AST/ASF file generated using VICON BodyLanguage
# -----------------------------------------------
:version 1.10
:name VICON
:units
  mass 1.0
  length 0.45
  angle deg
:documentation
   .ast/.asf automatically generated from VICON data using
   VICON BodyBuilder and BodyLanguage model FoxedUp or BRILLIANT.MOD
:root
   order TX TY TZ RX RY RZ
   axis XYZ
   position 0 0 0  
   orientation 0 0 0 
:bonedata
  begin
     id 1 
     name lhipjoint
     direction 0.576517 -0.752066 0.319413 
     length 2.45433 
     axis 0 0 0  XYZ
  end
  begin
     id 2 
     name lfemur
     direction 0.34202 -0.939693 0  
     length 7.54459  
     axis 0 0 20  XYZ
    dof rx ry rz
    limits (-160.0 20.0)
           (-70.0 70.0)
           (-60.0 70.0)
  end
  begin
     id 3 
     name ltibia
     direction 0.34202 -0.939693 0   
     length 7.73986   
     axis 0 0 20   XYZ
    dof rx
    limits (-10.0 170.0)
  end
  begin
     id 4 
     name lfoot
     direction 0.090693 -0.249177 0.964202   
     length 2.28437   
     axis -90 7.62852e-016 20   XYZ
    dof rx rz
    limits (-45.0 90.0)
           (-70.0 20.0)
  end
  begin
     id 5 
     name ltoes
     direction 1.5356e-011 -4.21928e-011 1   
     length 1.14243   
     axis -90 7.62852e-016 20   XYZ
    dof rx
    limits (-90.0 20.0)
  end
  begin
     id 6 
     name rhipjoint
     direction -0.573937 -0.753736 0.320122   
     length 2.44889  
     axis 0 0 0  XYZ 
  end
  begin
     id 7 
     name rfemur
     direction -0.34202 -0.939693 0   
     length 7.50166   
     axis 0 0 -20   XYZ
    dof rx ry rz
    limits (-160.0 20.0)
           (-70.0 70.0)
           (-70.0 60.0)
  end
  begin
     id 8 
     name rtibia
     direction -0.34202 -0.939693 0   
     length 7.54266   
     axis 0 0 -20   XYZ
    dof rx
    limits (-10.0 170.0)
 end
 begin
     id 9 
     name rfoot
     direction -0.114017 -0.31326 0.942798   
     length 2.34212  
     axis -90 -7.62852e-016 -20   XYZ
    dof rx rz
    limits (-45.0 90.0)
           (-20.0 70.0)
  end
  begin
     id 10 
     name rtoes
     direction -1.53557e-011 -4.21867e-011 1   
     length 1.16246   
     axis -90 -7.62852e-016 -20   XYZ
    dof rx
    limits (-90.0 20.0)
  end
  begin
     id 11 
     name lowerback
     direction -0.0228371 0.999155 -0.034167   
     length 2.0537   
     axis 0 0 0   XYZ
    dof rx ry rz
    limits (-20.0 45.0)
           (-30.0 30.0)
           (-30.0 30.0)
  end
  begin
     id 12 
     name upperback
     direction 0.0198981 0.999794 0.00389455   
     length 2.05302   
     axis 0 0 0   XYZ
    dof rx ry rz
    limits (-20.0 45.0)
           (-30.0 30.0)
           (-30.0 30.0)
  end
  begin
     id 13 
     name thorax
     direction 0.0304566 0.99935 0.0192987   
     length 2.05315   
     axis 0 0 0   XYZ
    dof rx ry rz
    limits (-20.0 45.0)
           (-30.0 30.0)
           (-30.0 30.0)
  end
  begin
     id 14 
     name lowerneck
     direction -0.0196762 0.99417 0.106017   
     length 1.82056   
     axis 0 0 0   XYZ
    dof rx ry rz
    limits (-20.0 45.0)
           (-30.0 30.0)
           (-30.0 30.0)
  end
  begin
     id 15 
     name upperneck
     direction 0.00517787 0.9802 -0.197944   
     length 1.83835   
     axis 0 0 0   XYZ
    dof rx ry rz
    limits (-20.0 45.0)
           (-30.0 30.0)
           (-30.0 30.0)
  end
  begin
     id 16
     name head
     direction 0.00211419 0.996945 -0.078081  
     length 1.85629  
     axis 0 0 0   XYZ
    dof rx ry rz
    limits (-20.0 45.0)
           (-30.0 30.0)
           (-30.0 30.0)
  end
  begin
     id 17 
     name lclavicle
     direction 0.930001 0.365811 -0.0357824  
     length 3.81961  
     axis 0 0 0   XYZ
    dof ry rz
    limits (-20.0 10.0)
           (0.0 20.0)
  end
  begin
     id 18 
     name lhumerus
     direction 1 -4.48968e-011 -3.06644e-027   
     length 5.14507   
     axis 180 -30 -90   XYZ
    dof rx ry rz
    limits (-60.0 90.0)
           (-90.0 90.0)
           (-90.0 90.0)
  end
  begin
     id 19
     name lradius
     direction 1 -4.48965e-011 9.06925e-028   
     length 3.50646   
     axis 180 -30 -90   XYZ
    dof rx
    limits (-10.0 170.0)
  end
  begin
     id 20
     name lwrist
     direction 1 -4.48957e-011 1.03922e-027   
     length 1.75323   
     axis -2.56395e-016 90 90   XYZ
    dof ry
    limits (-180.0 0.0)
 end
  begin
     id 21 
     name lhand
     direction 1 -4.48967e-011 2.08017e-027   
     length 0.629969   
     axis -1.32723e-015 90 90   XYZ
    dof rx rz
    limits (-90.0 90.0)
           (-45.0 45.0)
  end
  begin
     id 22 
     name lfingers
     direction 1 -4.49089e-011 4.20095e-027   
     length 0.507897   
     axis -2.6545e-015 90 90   XYZ
    dof rx
    limits (0.0 90.0)
  end
  begin
     id 23
     name lthumb
     direction 0.707107 -6.35001e-011 0.707107   
     length 0.729241   
     axis -90 45 5.05613e-014   XYZ
    dof rx rz
    limits (-45.0 45.0)
           (-45.0 45.0)
  end
  begin
     id 24 
     name rclavicle
     direction -0.881882 0.464123 -0.0829113   
     length 3.47515  
     axis 0 0 0   XYZ 
    dof ry rz
    limits (-10.0 20.0)
           (-20.0 0.0)
  end
  begin
     id 25 
     name rhumerus
     direction -1 -4.48961e-011 -1.55672e-027  
     length 5.232   
     axis 180 30 90   XYZ
    dof rx ry rz
    limits (-90.0 60.0)
           (-90.0 90.0)
           (-90.0 90.0)
  end
  begin
     id 26 
     name rradius
     direction -1 -4.48963e-011 6.18178e-029   
     length 3.65641   
     axis 180 30 90   XYZ
    dof rx
    limits (-10.0 170.0)
  end
  begin
     id 27 
     name rwrist
     direction -1 -4.48982e-011 1.04136e-027   
     length 1.8282   
     axis -2.56395e-016 -90 -90   XYZ
    dof ry
    limits (-180.0 0.0)
  end
  begin
     id 28
     name rhand
     direction -1 -4.48929e-011 2.07378e-027   
     length 0.656807   
     axis -1.32723e-015 -90 -90   XYZ
    dof rx rz
    limits (-90.0 90.0)
           (-45.0 45.0)
  end
  begin
     id 29
     name rfingers
     direction -1 -4.489e-011 4.13816e-027   
     length 0.529535   
     axis -2.6545e-015 -90 -90   XYZ
    dof rx
    limits (0.0 90.0)
  end
  begin
     id 30
     name rthumb
     direction -0.707107 -6.34843e-011 0.707107   
     length 0.760309   
     axis -90 -45 -5.05613e-014   XYZ
    dof rx rz
    limits (-45.0 45.0)
           (-45.0 45.0)
  end
:hierarchy
  begin
    root lhipjoint rhipjoint lowerback
    lhipjoint lfemur
    lfemur ltibia
    ltibia lfoot
    lfoot ltoes
    rhipjoint rfemur
    rfemur rtibia
    rtibia rfoot
    rfoot rtoes
    lowerback upperback
    upperback thorax
    thorax lowerneck lclavicle rclavicle
    lowerneck upperneck
    upperneck head
    lclavicle lhumerus
    lhumerus lradius
    lradius lwrist
    lwrist lhand lthumb
    lhand lfingers
    rclavicle rhumerus
    rhumerus rradius
    rradius rwrist
    rwrist rhand rthumb
    rhand rfingers
  end

#!OML:ASF H:\ManfredETheater\Project 1\Capture day 1\Session 1\subject.ASF
:FULLY-SPECIFIED
:DEGREES
1
root 0.10407 16.5517 -36.211 15.02 -5.67145 8.82055
lowerback 14.7671 -2.03881 -5.07781
upperback -1.0179 -3.46465 1.60433
thorax -9.00473 -1.37471 5.37531
lowerneck -18.9273 2.53701 -0.255571
upperneck 8.61779 4.33779 -6.50888
head 5.82873 1.57018 -1.58886
rclavicle 2.50469e-014 1.43125e-014
rhumerus -49.7989 -0.663852 -75.2652
rradius 98.6755
rwrist -11.1273
rhand -31.7422 6.95106
rfingers 7.12502
rthumb -4.99978 -22.97
lclavicle 2.50469e-014 1.43125e-014
lhumerus -28.7081 -33.5458 97.2347
lradius 109.213
lwrist 4.64873
lhand -20.3588 -3.42653
lfingers 7.12502
lthumb 5.99346 26.4687
rfemur -65.1055 -5.17022 4.54513
rtibia 56.428
rfoot -13.9111 -7.23778
rtoes -8.58596
lfemur 4.78199 -8.934 -38.7259
ltibia 52.1758
lfoot 14.7402 -4.99822
ltoes -12.656
2
root 0.0689529 16.5508 -35.5575 14.0864 -6.20296 7.63449
lowerback 15.4704 -1.66079 -4.04145
upperback -0.691644 -2.7491 2.12276
thorax -9.15639 -1.06596 5.22593
lowerneck -18.7298 2.43072 -0.566128
upperneck 8.27428 4.26469 -6.66281
head 5.68413 1.52543 -1.59768
rclavicle -4.09496e-014 -2.38542e-015
rhumerus -46.8005 -0.497206 -75.1364
rradius 97.7762
rwrist -10.7214
rhand -32.4155 6.98551
rfingers 7.12502
rthumb -5.64987 -22.9192
lclavicle -4.09496e-014 -2.38542e-015
lhumerus -30.0159 -33.2102 97.6391
lradius 106.141
lwrist 6.20329
lhand -19.8721 -4.08595
lfingers 7.12502
lthumb 6.46327 25.7954
rfemur -62.9286 -4.20146 5.86367
rtibia 56.4896
rfoot -13.3606 -7.05896
rtoes -11.9277
lfemur 2.39821 -7.01301 -37.6801
ltibia 58.5242
lfoot 13.3437 -5.26556
ltoes -9.72232
3
root 0.0339655 16.5513 -34.8957 13.0592 -6.47704 6.0329
lowerback 16.2924 -1.39276 -2.47677
upperback -0.291371 -2.05977 2.7235
thorax -9.29337 -0.795134 4.85939
lowerneck -18.6856 2.31826 -0.677339
upperneck 8.06869 4.16305 -6.94912
head 5.61502 1.45661 -1.682
rclavicle -1.07344e-014 -3.81667e-014
rhumerus -43.672 -0.287787 -75.2178
rradius 96.8869
rwrist -10.5787
rhand -33.0001 7.11426
rfingers 7.12502
rthumb -6.21429 -22.7746
lclavicle -1.07344e-014 -3.81667e-014
lhumerus -31.0367 -32.7025 97.7463
lradius 102.756
lwrist 7.42447
lhand -18.3642 -3.91039
lfingers 7.12502
lthumb 7.91879 25.9213
rfemur -60.084 -3.34557 7.6961
rtibia 56.6942
rfoot -12.9971 -6.68817
rtoes -11.0798
lfemur 0.145809 -5.10456 -36.0093
ltibia 64.4898
lfoot 11.3553 -5.34912
ltoes -10.1616
4
root -0.0139517 16.545 -34.2369 12.1232 -6.70676 4.17838
lowerback 17.1529 -1.14836 -0.858528
upperback 0.0907091 -1.35728 3.44177
thorax -9.44936 -0.516717 4.57654
lowerneck -18.672 2.2022 -0.830736
upperneck 7.88751 4.06133 -7.18189
head 5.55624 1.38965 -1.74212
rclavicle -5.1684e-015 3.33958e-014
rhumerus -40.3483 -0.0244586 -75.4552
rradius 96.0046
rwrist -10.6491
rhand -33.155 7.19711
rfingers 7.12502
rthumb -6.36383 -22.6873
lclavicle -5.1684e-015 3.33958e-014
lhumerus -32.0584 -32.1586 97.9234
lradius 98.8457
lwrist 5.95636
lhand -19.5202 -4.14432
lfingers 7.12502
lthumb 6.80301 25.7264
rfemur -56.9976 -2.43591 9.85737
rtibia 56.9875
rfoot -12.5465 -6.33469
rtoes -12.4502
lfemur -2.3256 -3.08847 -33.826
ltibia 70.0413
lfoot 9.06897 -5.06405
ltoes -11.4742
5
root -0.0689289 16.5821 -33.6014 11.2111 -6.74863 2.82924
lowerback 18.5635 -0.953447 0.211697
upperback 0.227977 -0.807435 3.93199
thorax -10.1483 -0.279762 4.41559
lowerneck -18.4409 2.05129 -0.964895
upperneck 7.76057 3.88407 -7.25503
head 5.47295 1.30247 -1.76297
rclavicle 1.86858e-014 -4.6118e-014
rhumerus -37.1501 0.227214 -76.4192
rradius 95.5114
rwrist -10.5995
rhand -33.2083 7.3965
rfingers 7.12502
rthumb -6.41534 -22.4863
lclavicle 1.86858e-014 -4.6118e-014
lhumerus -33.0133 -30.8324 97.5431
lradius 95.3536
lwrist 3.59292
lhand -21.2253 -5.50232
lfingers 7.12502
lthumb 5.15685 24.4149
rfemur -53.5294 -2.1158 11.4671
rtibia 57.8716
rfoot -13.6264 -5.83481
rtoes -5.7461
lfemur -6.00489 -1.37026 -31.9657
ltibia 75.0933
lfoot 5.83756 -3.99663
ltoes -10.8675
6
root -0.121599 16.5683 -32.9673 10.3547 -6.94268 1.36689
lowerback 19.6911 -0.75304 1.50071
upperback 0.467019 -0.175929 4.44814
thorax -10.5676 -0.0271732 4.10719
lowerneck -18.3275 1.90645 -1.07056
upperneck 7.57292 3.71627 -7.40634
head 5.39238 1.21439 -1.81131
rclavicle -1.15295e-014 1.43125e-014
rhumerus -33.9996 0.533834 -77.0021
rradius 94.9077
rwrist -10.4232
rhand -33.3201 7.59639
rfingers 7.12502
rthumb -6.52326 -22.2831
lclavicle -1.15295e-014 1.43125e-014
lhumerus -33.9613 -30.0677 97.3186
lradius 92.2354
lwrist 2.85571
lhand -21.9081 -6.06574
lfingers 7.12502
lthumb 4.4975 23.8665
rfemur -50.5567 -1.63978 13.1521
rtibia 58.7255
rfoot -14.8917 -5.85992
rtoes -5.36158
lfemur -9.08869 0.379181 -30.1364
ltibia 79.9449
lfoot 3.33881 -3.39949
ltoes -10.7458
7
root -0.179485 16.5324 -32.3447 9.59573 -7.10447 -0.113007
lowerback 20.8266 -0.583561 2.81244
upperback 0.665917 0.451382 4.92407
thorax -11.0161 0.215579 3.7318
lowerneck -18.2145 1.7584 -1.1114
upperneck 7.36661 3.52576 -7.55182
head 5.30596 1.11867 -1.86999
rclavicle -3.4191e-014 -6.36111e-015
rhumerus -30.9346 0.857017 -77.7394
rradius 94.4234
rwrist -10.1571
rhand -33.3491 7.79602
rfingers 7.12502
rthumb -6.55124 -22.0827
lclavicle -3.4191e-014 -6.36111e-015
lhumerus -34.882 -29.2867 96.9432
lradius 89.5101
lwrist 2.17306
lhand -22.6739 -6.55898
lfingers 7.12502
lthumb 3.75802 23.3876
rfemur -47.6891 -1.27607 14.8468
rtibia 59.8165
rfoot -16.7536 -6.09749
rtoes -5.58936
lfemur -12.5619 2.03814 -28.2744
ltibia 84.4934
lfoot 0.68281 -2.68934
ltoes -10.7165
